<svg width="2361" height="604" viewBox="0 0 2361 604" fill="none" xmlns="http://www.w3.org/2000/svg">
<g clip-path="url(#clip0_1042_6)">
<path d="M269.349 538.698C418.073 538.698 538.698 418.073 538.698 269.349C538.698 120.625 418.073 0 269.349 0C120.625 0 0 120.625 0 269.349C0 418.073 120.537 538.698 269.349 538.698Z" fill="#2CA01C"/>
<path d="M179.527 164.569C121.666 164.569 74.7461 211.488 74.7461 269.35C74.7461 327.211 121.578 374.043 179.527 374.043H194.496V335.177H179.527C143.199 335.177 113.7 305.677 113.7 269.35C113.7 233.022 143.199 203.522 179.527 203.522H215.504V407.044C215.504 428.491 232.924 445.91 254.37 445.91V164.569H179.527ZM359.151 374.043C417.013 374.043 463.932 327.124 463.932 269.35C463.932 211.576 417.1 164.656 359.151 164.656H344.183V203.522H359.151C395.479 203.522 424.979 233.022 424.979 269.35C424.979 305.677 395.479 335.177 359.151 335.177H323.174V131.655C323.174 110.209 305.754 92.7891 284.308 92.7891V374.043H359.151Z" fill="white"/>
<path d="M794.377 604H752.709V498.519H752.009C741.242 515.151 720.058 525.567 696.774 525.567C646.09 525.567 614.84 485.301 614.84 436.718C614.84 388.136 648.191 349.182 695.723 349.182C726.274 349.182 745.006 364.063 753.322 377.281H754.373V353.996H794.289V604H794.377ZM705.177 490.816C735.727 490.816 754.11 463.417 754.11 437.331C754.11 411.245 735.727 383.146 705.177 383.146C672.964 383.146 657.295 410.545 657.295 436.631C657.295 462.629 672.876 490.816 705.177 490.816ZM981.354 520.665H941.788V493.879H941.087C933.822 510.511 914.039 525.48 889.353 525.48C845.935 525.48 827.903 492.129 827.903 458.165V353.996H869.57V446.347C869.57 466.13 874.035 490.728 900.821 490.728C927.607 490.728 939.687 467.793 939.687 445.647V353.996H981.354V520.578V520.665ZM1023.2 350.407H1064.86V517.076H1023.2V350.407ZM1220.59 400.216C1214.03 390.849 1199.76 383.846 1186.19 383.846C1155.64 383.846 1140.32 411.245 1140.32 437.331C1140.32 463.417 1155.99 490.816 1187.5 490.816C1200.37 490.816 1214.55 485.563 1222.6 475.934L1248.6 502.283C1234.68 517.164 1211.75 525.567 1187.15 525.567C1137.87 525.567 1096.9 492.916 1096.9 437.418C1096.9 381.92 1137.17 349.269 1186.1 349.269C1210.44 349.269 1235.73 358.986 1248.95 375.268L1220.5 400.216H1220.59ZM1269.61 258.232H1311.28V424.113H1312.33L1375.53 353.996H1429.01L1356.8 429.365L1433.57 520.665H1378.42L1312.42 435.23H1311.37V520.665H1269.7V258.319L1269.61 258.232ZM1494.14 258.232V375.268H1495.19C1503.86 364.501 1520.49 349.269 1551.13 349.269C1598.66 349.269 1632.01 387.435 1632.01 436.806C1632.01 486.176 1600.76 525.655 1550.08 525.655C1526.79 525.655 1504.21 514.888 1492.83 495.805H1492.13V520.84H1452.56V258.319H1494.23L1494.14 258.232ZM1541.67 383.233C1511.12 383.233 1492.74 411.333 1492.74 437.418C1492.74 463.504 1511.12 490.903 1541.67 490.903C1573.97 490.903 1589.56 462.804 1589.56 436.718C1589.56 410.632 1573.97 383.233 1541.67 383.233ZM1740.56 349.182C1790.89 349.182 1831.16 384.284 1831.16 436.718C1831.16 489.152 1790.89 525.567 1740.56 525.567C1690.22 525.567 1649.96 489.152 1649.96 436.718C1649.96 384.284 1690.22 349.182 1740.56 349.182ZM1740.56 490.816C1773.56 490.816 1788.79 462.716 1788.79 436.631C1788.79 410.545 1773.56 383.146 1740.56 383.146C1707.55 383.146 1692.32 410.545 1692.32 436.631C1692.32 462.716 1707.55 490.816 1740.56 490.816ZM1939.96 349.182C1990.3 349.182 2030.56 384.284 2030.56 436.718C2030.56 489.152 1990.3 525.567 1939.96 525.567C1889.63 525.567 1849.36 489.152 1849.36 436.718C1849.36 384.284 1889.63 349.182 1939.96 349.182ZM1939.96 490.816C1972.96 490.816 1988.2 462.716 1988.2 436.631C1988.2 410.545 1972.96 383.146 1939.96 383.146C1906.96 383.146 1891.73 410.545 1891.73 436.631C1891.73 462.629 1906.96 490.816 1939.96 490.816ZM2055.77 258.232H2097.44V424.113H2098.49L2161.69 353.996H2215.09L2142.96 429.365L2219.64 520.665H2164.49L2098.49 435.23H2097.44V520.665H2055.77V258.319V258.232ZM2333.35 398.465C2326.09 388.748 2312.17 380.432 2296.94 380.432C2283.81 380.432 2270.15 385.334 2270.15 398.552C2270.15 411.77 2283.02 414.922 2306.21 420.436C2330.9 426.389 2360.05 437.418 2360.05 470.069C2360.05 510.686 2327.05 525.655 2290.63 525.655C2264.99 525.655 2238.2 515.938 2222.18 498.256L2249.58 472.608C2258.6 484.425 2274.26 493.442 2292.3 493.442C2304.46 493.442 2319.08 488.54 2319.08 473.658C2319.08 459.74 2306.22 455.626 2280.92 449.673C2256.23 443.721 2231.63 433.742 2231.63 402.491C2231.63 365.289 2264.99 349.444 2297.99 349.444C2321.88 349.444 2346.92 357.76 2360.49 374.742L2333.53 398.727L2333.35 398.465ZM1071.25 126.577C1071.25 168.857 1105.04 199.67 1148.02 199.67C1191 199.67 1224.88 168.857 1224.88 126.577V29.5871H1183.21V121.675C1183.21 144.435 1167.98 159.753 1147.94 159.753C1127.89 159.753 1112.57 144.522 1112.57 121.675V29.5871H1070.99L1071.25 126.577ZM1336.23 68.5407H1385.95V196.344H1427.53V68.5407H1477.16V29.5871H1336.23V68.5407ZM1309.26 29.5871H1267.69V196.431H1309.26V29.5871ZM903.272 68.5407H952.992V196.344H994.572V68.5407H1044.21V29.5871H903.359V68.5407H903.272ZM684.956 29.5871H643.377V196.431H684.956V29.5871ZM881.388 99.3535C881.388 57.0735 847.511 26.2607 804.531 26.2607C761.551 26.2607 727.674 57.0735 727.674 99.3535V196.344H769.254V104.256C769.254 81.4961 784.485 66.1773 804.531 66.1773C824.577 66.1773 839.808 81.4086 839.808 104.256V196.344H881.388V99.3535Z" fill="black"/>
</g>
<defs>
<clipPath id="clip0_1042_6">
<rect width="2360.41" height="604" fill="white"/>
</clipPath>
</defs>
</svg>
