<svg width="539" height="539" viewBox="0 0 539 539" fill="none" xmlns="http://www.w3.org/2000/svg">
<path d="M269.349 538.698C418.073 538.698 538.698 418.073 538.698 269.349C538.698 120.625 418.073 0 269.349 0C120.625 0 0 120.625 0 269.349C0 418.073 120.537 538.698 269.349 538.698Z" fill="#2CA01C"/>
<path d="M179.527 164.569C121.666 164.569 74.7461 211.488 74.7461 269.35C74.7461 327.211 121.578 374.043 179.527 374.043H194.496V335.177H179.527C143.199 335.177 113.7 305.677 113.7 269.35C113.7 233.022 143.199 203.522 179.527 203.522H215.504V407.044C215.504 428.491 232.924 445.91 254.37 445.91V164.569H179.527ZM359.151 374.043C417.013 374.043 463.932 327.124 463.932 269.35C463.932 211.576 417.1 164.656 359.151 164.656H344.183V203.522H359.151C395.479 203.522 424.979 233.022 424.979 269.35C424.979 305.677 395.479 335.177 359.151 335.177H323.174V131.655C323.174 110.209 305.754 92.7891 284.308 92.7891V374.043H359.151Z" fill="white"/>
</svg>
